# xmcd CD database file
#
# Track frame offsets:
#	150
#	25572
#	45819
#	63987
#	87492
#
# Disc length: 1433 seconds
#
# Revision: 0
# Processed by: cddbd v1.4PL0 Copyright (c) Steve Scherf et al.
# Submitted via: CDex 1.51
#
DISCID=2e059705
DTITLE=Chamras Saewataporn - The Spell Of Whispering
DYEAR=1900
DGENRE=New Age
TTITLE0=Nest On The Tree Of Life
TTITLE1=The Spell Of Whispering
TTITLE2=Jungle Palace
TTITLE3=Everlasting Divine Poetry
TTITLE4=Sleepy Child
EXTD=
EXTT0=
EXTT1=
EXTT2=
EXTT3=
EXTT4=
PLAYORDER=
